<svg width="23" height="40" viewBox="0 0 23 40" fill="none" xmlns="http://www.w3.org/2000/svg">
<path d="M2.09766 39.1605C3.62096 37.6341 6.7175 34.4233 11.3873 29.5283C16.0321 24.6859 19.6531 21.0014 22.2502 18.4749C22.4499 18.2644 22.4499 18.1065 22.2502 18.0012C20.3023 16.1063 16.9935 13.1061 12.3237 9.0006C7.62898 4.89506 4.08294 1.89486 1.68562 -7.36807e-08C1.6107 -7.0406e-08 1.56076 0.0526351 1.53579 0.157905C1.46087 0.473716 0.94894 2.94756 3.31308e-07 7.57945C3.42812e-07 7.84263 0.037458 7.97422 0.112373 7.97422C8.27826 13.5009 11.1364 16.8959 12.7596 18.1591C12.9344 18.317 12.9469 18.5012 12.7971 18.7118C11.5734 19.8171 8.8651 23.8437 0.599331 30.7915C0.499442 30.8968 0.474471 31.0021 0.524416 31.1073C0.898997 33.318 1.37347 35.9498 1.94783 39.0026C1.94783 39.0552 1.9728 39.1079 2.02274 39.1605C2.04771 39.2131 2.07269 39.2131 2.09766 39.1605Z" fill="black"/>
</svg>
