<svg width="23" height="40" viewBox="0 0 23 40" fill="none" xmlns="http://www.w3.org/2000/svg">
<path d="M20.3024 39.1605C18.7791 37.6341 15.6825 34.4233 11.0127 29.5283C6.36793 24.6859 2.74697 21.0014 0.149871 18.4749C-0.0499066 18.2644 -0.0499066 18.1065 0.149871 18.0012C2.0977 16.1063 5.4065 13.1061 10.0763 9.0006C14.771 4.89506 18.3171 1.89486 20.7144 -7.36807e-08C20.7893 -7.0406e-08 20.8393 0.0526351 20.8642 0.157905C20.9392 0.473716 21.4511 2.94756 22.4 7.57945C22.4 7.84263 22.3626 7.97422 22.2877 7.97422C14.1218 13.5009 11.2636 16.8959 9.64041 18.1591C9.4656 18.317 9.45312 18.5012 9.60295 18.7118C10.8266 19.8171 13.5349 23.8437 21.8007 30.7915C21.9006 30.8968 21.9256 31.0021 21.8756 31.1073C21.501 33.318 21.0266 35.9498 20.4522 39.0026C20.4522 39.0552 20.4272 39.1079 20.3773 39.1605C20.3523 39.2131 20.3273 39.2131 20.3024 39.1605Z" fill="black"/>
</svg>
