<?xml version="1.0" encoding="utf-8"?>
<!-- Generator: Adobe Illustrator 22.1.0, SVG Export Plug-In . SVG Version: 6.00 Build 0)  -->
<svg version="1.1" id="Layer_1" xmlns="http://www.w3.org/2000/svg" xmlns:xlink="http://www.w3.org/1999/xlink" x="0px" y="0px"
	 viewBox="0 0 36 36" style="enable-background:new 0 0 36 36;" xml:space="preserve">
<style type="text/css">
	.st0{fill:#FFFFFF;}
</style>
<path class="st0" d="M18,9.3c-5,0-9,4-9,9s4,9,9,9s9-4,9-9S23,9.3,18,9.3z M18,24.1c-3.2,0-5.8-2.6-5.8-5.8s2.6-5.8,5.8-5.8
	s5.8,2.6,5.8,5.8C23.9,21.5,21.2,24.1,18,24.1z M29.5,9c0,1.2-0.9,2.1-2.1,2.1c-1.2,0-2.1-0.9-2.1-2.1s0.9-2.1,2.1-2.1
	C28.5,6.9,29.5,7.8,29.5,9z M35.5,11.1C35.3,9.2,35,8,34.7,6.8c-0.4-1.2-1-2.1-2-3.1c-1-1-1.9-1.6-3.1-2c-1.1-0.4-2.4-0.7-4.2-0.8
	c-1.9-0.1-2.5-0.1-7.2-0.1c-4.8,0-5.3,0-7.2,0.1C9,1,7.8,1.3,6.5,1.7s-2.1,1-3.1,2s-1.6,1.9-2,3.1C1,7.9,0.8,9.2,0.7,11
	c-0.1,1.9-0.1,2.5-0.1,7.2c0,4.8,0,5.3,0.1,7.2c0.1,1.9,0.4,3.1,0.8,4.2c0.4,1.1,1,2.1,2,3.1c1,1,1.9,1.6,3.1,2
	c1.1,0.4,2.4,0.7,4.2,0.8c1.9,0.1,2.5,0.1,7.2,0.1c4.8,0,5.3,0,7.2-0.1c1.9-0.1,3.1-0.4,4.2-0.8c1.2-0.4,2.1-1,3.1-2s1.6-1.9,2-3.1
	c0.4-1.1,0.7-2.4,0.8-4.2c0.1-1.9,0.1-2.5,0.1-7.2C35.5,13.6,35.5,13,35.5,11.1z M32.2,25.4c-0.1,1.7-0.4,2.6-0.6,3.3
	c-0.3,0.8-0.7,1.4-1.3,2c-0.6,0.6-1.2,1-2,1.3c-0.6,0.2-1.5,0.5-3.3,0.6s-2.4,0.1-7.1,0.1s-5.2,0-7.1-0.1c-1.7-0.1-2.6-0.4-3.2-0.6
	c-0.8-0.3-1.4-0.7-2-1.3c-0.6-0.6-1-1.2-1.3-2c-0.2-0.6-0.5-1.5-0.6-3.3c0-1.9,0-2.4,0-7.1s0-5.2,0.1-7.1c0.1-1.7,0.4-2.6,0.6-3.3
	c0.3-0.8,0.7-1.4,1.3-2s1.2-1,2-1.3C8.3,4.4,9.2,4.1,10.9,4c1.9,0,2.4,0,7.1,0s5.2,0,7.1,0.1c1.7,0.1,2.6,0.4,3.3,0.6
	c0.8,0.3,1.4,0.7,2,1.3c0.6,0.6,1,1.2,1.3,2c0.2,0.6,0.5,1.5,0.6,3.3c0.1,1.8,0.1,2.4,0.1,7.1C32.5,23,32.3,23.5,32.2,25.4z"/>
</svg>
