<svg width="17" height="18" viewBox="0 0 17 18" fill="none" xmlns="http://www.w3.org/2000/svg">
<path d="M8.37323 4.58652C6.00857 4.58652 4.07032 6.57963 4.07032 9.01122C4.07032 11.4428 6.00857 13.4359 8.37323 13.4359C10.7379 13.4359 12.6761 11.4428 12.6761 9.01122C12.6761 6.57963 10.7767 4.58652 8.37323 4.58652ZM8.37323 11.9212C6.82264 11.9212 5.58216 10.6456 5.58216 9.05108C5.58216 7.4566 6.82264 6.18101 8.37323 6.18101C9.92383 6.18101 11.1643 7.4566 11.1643 9.05108C11.2031 10.6057 9.92383 11.9212 8.37323 11.9212ZM13.8779 4.42707C13.8779 4.98514 13.4127 5.46349 12.87 5.46349C12.3273 5.46349 11.8621 4.98514 11.8621 4.42707C11.8621 3.869 12.3273 3.39066 12.87 3.39066C13.4127 3.39066 13.8779 3.869 13.8779 4.42707ZM16.7077 5.46349C16.6689 4.54666 16.5139 3.90887 16.3201 3.3508C16.0875 2.79273 15.8161 2.31438 15.3509 1.83604C14.8857 1.35769 14.4206 1.07866 13.8779 0.839484C13.3352 0.640174 12.7537 0.480725 11.8233 0.440863C10.9705 0.401001 10.6604 0.401001 8.37323 0.401001C6.0861 0.401001 5.81475 0.401001 4.92315 0.440863C4.03156 0.480725 3.41132 0.640174 2.86861 0.839484C2.3259 1.07866 1.86072 1.35769 1.39554 1.83604C0.930359 2.31438 0.659005 2.79273 0.426415 3.39066C0.23259 3.94873 0.07753 4.58652 0.038765 5.50335C0 6.38032 0 6.69921 0 9.01122C0 11.3631 0 11.6421 0.038765 12.5589C0.07753 13.4758 0.23259 14.1136 0.426415 14.6716C0.659005 15.2297 0.930359 15.7081 1.39554 16.1864C1.86072 16.6647 2.3259 16.9438 2.86861 17.183C3.41132 17.3823 3.99279 17.5417 4.92315 17.5816C5.81475 17.6214 6.0861 17.6214 8.37323 17.6214C10.6604 17.6214 10.9317 17.6214 11.8233 17.5816C12.7149 17.5417 13.3352 17.3823 13.8779 17.183C14.4206 16.9438 14.8857 16.6647 15.3509 16.1864C15.8161 15.7081 16.0875 15.2297 16.3201 14.6716C16.5139 14.1136 16.6689 13.4758 16.7077 12.5589C16.7465 11.6421 16.7465 11.3631 16.7465 9.01122C16.7852 6.69921 16.7852 6.38032 16.7077 5.46349ZM15.2346 12.5191C15.1959 13.3562 15.0796 13.8345 14.9633 14.1136C14.8082 14.5122 14.6144 14.7912 14.343 15.1101C14.0329 15.429 13.7616 15.5885 13.3739 15.7479C13.0638 15.8675 12.6374 15.9871 11.8233 16.0269C10.9317 16.0668 10.6604 16.0668 8.45076 16.0668C6.2024 16.0668 5.93104 16.0668 5.07821 16.0269C4.26415 15.9871 3.79897 15.8675 3.52761 15.7479C3.13996 15.5885 2.86861 15.3892 2.55849 15.1101C2.24837 14.7912 2.09331 14.5122 1.93825 14.1136C1.82195 13.7947 1.70566 13.3562 1.66689 12.5191C1.62813 11.6023 1.62813 11.3232 1.62813 9.05108C1.62813 6.73908 1.62813 6.46004 1.66689 5.58308C1.70566 4.74597 1.82195 4.26763 1.93825 3.98859C2.09331 3.58997 2.28713 3.31094 2.55849 2.99204C2.86861 2.67314 3.13996 2.51369 3.52761 2.35424C3.83773 2.23466 4.26415 2.11507 5.07821 2.07521C5.96981 2.03535 6.24116 2.03535 8.45076 2.03535C10.6991 2.03535 10.9705 2.03535 11.8233 2.07521C12.6374 2.11507 13.1026 2.23466 13.3739 2.35424C13.7616 2.51369 14.0329 2.713 14.343 2.99204C14.6532 3.31094 14.8082 3.58997 14.9633 3.98859C15.0796 4.30749 15.1959 4.74597 15.2346 5.58308C15.2734 6.4999 15.2734 6.77894 15.2734 9.05108C15.2734 11.3232 15.2734 11.6023 15.2346 12.5191Z" fill="black"/>
</svg>
