<svg width="20" height="17" viewBox="0 0 20 17" fill="none" xmlns="http://www.w3.org/2000/svg">
<path d="M17.5218 4.16335C17.5218 4.3228 17.5218 4.52211 17.5218 4.68155C17.5218 10.1028 13.4902 16.401 6.12488 16.401C3.87651 16.401 1.78319 15.7234 0 14.5674C0.310121 14.6072 0.620241 14.6072 0.969127 14.6072C2.82985 14.6072 4.57428 13.9694 5.93106 12.8533C4.18663 12.8134 2.71356 11.6176 2.20961 9.98322C2.4422 10.0231 2.67479 10.0629 2.94615 10.0629C3.29503 10.0629 3.68268 10.0231 3.9928 9.90349C2.17084 9.54473 0.775301 7.87052 0.775301 5.87742V5.83756C1.31801 6.15645 1.93825 6.3159 2.59726 6.35576C1.51184 5.59838 0.814066 4.36266 0.814066 2.92762C0.814066 2.17024 1.00789 1.45272 1.35678 0.854792C3.3338 3.32624 6.27994 5.00045 9.61374 5.1599C9.53621 4.841 9.49744 4.56197 9.49744 4.20321C9.49744 1.93107 11.2806 0.0974121 13.4902 0.0974121C14.6532 0.0974121 15.6999 0.61562 16.3976 1.41286C17.328 1.21355 18.1808 0.894654 18.9561 0.416309C18.646 1.373 18.0258 2.17024 17.2117 2.68845C18.0258 2.60873 18.8011 2.36955 19.4988 2.05066C18.9561 2.8479 18.2971 3.56542 17.5218 4.16335Z" fill="black"/>
</svg>
